<?xml version="1.0" encoding="utf-8"?>
<!-- Generator: Adobe Illustrator 17.1.0, SVG Export Plug-In . SVG Version: 6.00 Build 0)  -->
<!DOCTYPE svg PUBLIC "-//W3C//DTD SVG 1.1//EN" "http://www.w3.org/Graphics/SVG/1.1/DTD/svg11.dtd">
<svg version="1.1" id="Layer_1" xmlns="http://www.w3.org/2000/svg" xmlns:xlink="http://www.w3.org/1999/xlink" x="0px" y="0px"
	 viewBox="0 0 246 246" enable-background="new 0 0 246 246" xml:space="preserve">
<g>
	<path fill="#FFFFFF" d="M122.999,237.072C60.002,237.072,8.927,185.998,8.927,123S60.002,8.928,122.999,8.928
		c63.008,0,114.074,51.074,114.074,114.072S186.007,237.072,122.999,237.072z"/>
</g>
<g>
	<path fill="#554194" d="M123.002,1.074C55.631,1.074,1,55.696,1,123.074s54.631,122,122.002,122
		c67.376,0,121.998-54.623,121.998-122S190.378,1.074,123.002,1.074z M123.002,235.859c-62.286,0-112.785-50.498-112.785-112.786
		S60.716,10.288,123.002,10.288c62.297,0,112.787,50.498,112.787,112.786S185.299,235.859,123.002,235.859z"/>
</g>
<circle fill="#554194" cx="64.989" cy="102.368" r="23.052"/>
<circle fill="#554194" cx="75.18" cy="186.559" r="12.243"/>
<circle fill="#554194" cx="45.216" cy="176.524" r="9.208"/>
<circle fill="#554194" cx="27.853" cy="138.886" r="4.57"/>
<circle fill="#554194" cx="93.853" cy="215.886" r="4.57"/>
<circle fill="#554194" cx="100.092" cy="204.648" r="2.573"/>
<circle fill="#554194" cx="111.092" cy="28.648" r="2.573"/>
<circle fill="#554194" cx="221.092" cy="28.648" r="2.573"/>
<circle fill="#554194" cx="221.092" cy="227.648" r="2.573"/>
<circle fill="#554194" cx="224.092" cy="201.648" r="2.573"/>
<circle fill="#554194" cx="15.092" cy="212.648" r="2.573"/>
<circle fill="#554194" cx="36.092" cy="83.648" r="2.573"/>
<circle fill="#554194" cx="58.092" cy="193.648" r="2.573"/>
<circle fill="#554194" cx="81.18" cy="57.559" r="12.243"/>
<circle fill="#554194" cx="44.23" cy="61.509" r="8.294"/>
</svg>
